<?xml version="1.0" encoding="utf-8"?>
<!-- Generator: Adobe Illustrator 22.1.0, SVG Export Plug-In . SVG Version: 6.00 Build 0)  -->
<svg version="1.1" id="Layer_1" xmlns="http://www.w3.org/2000/svg" xmlns:xlink="http://www.w3.org/1999/xlink" x="0px" y="0px"
	 viewBox="0 0 130 60" enable-background="new 0 0 130 60" xml:space="preserve">
<g>
	<g>
		<path fill="#EBE2DB" d="M121.159,60H78.307c-4.875,0-8.841-3.932-8.841-8.763V8.763C69.466,3.931,73.432,0,78.307,0h42.852
			C126.033,0,130,3.931,130,8.763v42.474C130,56.068,126.033,60,121.159,60z M78.307,0.984c-4.328,0-7.849,3.49-7.849,7.78v42.474
			c0,4.29,3.521,7.78,7.849,7.78h42.852c4.328,0,7.849-3.49,7.849-7.78V8.763c0-4.29-3.521-7.78-7.849-7.78H78.307z"/>
	</g>
	<g>
		<path fill="#EBE2DB" d="M51.693,60H8.841C3.966,60,0,56.068,0,51.237V8.763C0,3.931,3.966,0,8.841,0h42.852
			c4.875,0,8.841,3.931,8.841,8.763v42.474C60.534,56.068,56.568,60,51.693,60z M8.841,0.984c-4.328,0-7.849,3.49-7.849,7.78v42.474
			c0,4.29,3.521,7.78,7.849,7.78h42.852c4.328,0,7.849-3.49,7.849-7.78V8.763c0-4.29-3.521-7.78-7.849-7.78H8.841z"/>
	</g>
	<g>
		<path fill="#EBE2DB" d="M35.725,42.295c-0.381,0-0.762-0.144-1.052-0.432l-10.916-10.82c-0.581-0.576-0.581-1.51,0-2.086
			l10.916-10.82c0.581-0.576,1.523-0.576,2.105,0c0.581,0.576,0.581,1.51,0,2.086L26.914,30l9.864,9.777
			c0.581,0.576,0.581,1.51,0,2.086C36.487,42.151,36.106,42.295,35.725,42.295z"/>
	</g>
	<g>
		<path fill="#EBE2DB" d="M94.275,42.295c-0.381,0-0.762-0.144-1.052-0.432c-0.581-0.576-0.581-1.51,0-2.086L103.086,30
			l-9.864-9.777c-0.581-0.576-0.581-1.51,0-2.086c0.581-0.576,1.523-0.576,2.105,0l10.916,10.82c0.581,0.576,0.581,1.51,0,2.086
			l-10.916,10.82C95.037,42.151,94.656,42.295,94.275,42.295z"/>
	</g>
</g>
</svg>
