<?xml version="1.0" encoding="utf-8"?>
<!-- Generator: Adobe Illustrator 22.1.0, SVG Export Plug-In . SVG Version: 6.00 Build 0)  -->
<svg version="1.1" id="Layer_1" xmlns="http://www.w3.org/2000/svg" xmlns:xlink="http://www.w3.org/1999/xlink" x="0px" y="0px"
	 viewBox="0 0 100 61" enable-background="new 0 0 100 61" xml:space="preserve">
<g>
	<path fill="#EAE1DA" d="M21.521,47.9c-0.096,0.048-0.236,0.111-0.42,0.191s-0.396,0.16-0.636,0.24s-0.513,0.152-0.816,0.216
		s-0.624,0.096-0.96,0.096c-0.352,0-0.688-0.048-1.008-0.144s-0.6-0.244-0.84-0.444c-0.24-0.199-0.432-0.451-0.576-0.756
		c-0.144-0.304-0.216-0.655-0.216-1.056v-8.952h-1.729v-1.296h1.729v-4.224h1.632v4.224h2.88v1.296h-2.88v8.496
		c0.032,0.464,0.195,0.804,0.492,1.02c0.296,0.217,0.636,0.324,1.02,0.324c0.464,0,0.872-0.075,1.225-0.228
		c0.352-0.152,0.576-0.26,0.672-0.324L21.521,47.9z"/>
	<path fill="#EAE1DA" d="M26.706,48.74c-0.593,0-1.141-0.101-1.645-0.3c-0.504-0.2-0.944-0.477-1.319-0.828
		c-0.377-0.353-0.669-0.765-0.877-1.236s-0.312-0.979-0.312-1.524c0-0.543,0.128-1.047,0.384-1.512
		c0.256-0.464,0.616-0.864,1.08-1.2s1.016-0.596,1.656-0.779c0.64-0.185,1.344-0.276,2.112-0.276c0.64,0,1.287,0.057,1.943,0.168
		c0.656,0.112,1.24,0.272,1.752,0.48v-1.129c0-1.104-0.312-1.979-0.936-2.628c-0.624-0.647-1.488-0.972-2.592-0.972
		c-0.641,0-1.296,0.128-1.969,0.384c-0.672,0.257-1.352,0.624-2.04,1.104l-0.575-1.08c1.615-1.088,3.184-1.632,4.703-1.632
		c1.568,0,2.8,0.44,3.696,1.319c0.896,0.881,1.344,2.097,1.344,3.648v5.64c0,0.448,0.2,0.672,0.601,0.672v1.44
		c-0.272,0.048-0.48,0.072-0.624,0.072c-0.416,0-0.74-0.104-0.972-0.312c-0.232-0.207-0.356-0.495-0.372-0.863l-0.049-0.984
		c-0.575,0.752-1.3,1.328-2.172,1.728C28.653,48.54,27.714,48.74,26.706,48.74z M27.09,47.492c0.848,0,1.628-0.16,2.34-0.48
		c0.712-0.319,1.252-0.744,1.62-1.271c0.144-0.145,0.252-0.3,0.324-0.468c0.071-0.169,0.107-0.324,0.107-0.469v-2.04
		c-0.544-0.207-1.107-0.367-1.691-0.479c-0.585-0.112-1.181-0.168-1.788-0.168c-1.152,0-2.088,0.24-2.809,0.72
		c-0.72,0.48-1.08,1.112-1.08,1.896c0,0.384,0.076,0.743,0.229,1.079c0.151,0.337,0.36,0.629,0.624,0.877s0.58,0.443,0.948,0.588
		C26.281,47.42,26.674,47.492,27.09,47.492z"/>
	<path fill="#EAE1DA" d="M42.762,48.74c-0.992,0-1.9-0.248-2.724-0.744c-0.824-0.496-1.469-1.136-1.933-1.92V48.5h-1.464V30.98
		h1.632v7.632c0.561-0.849,1.232-1.532,2.017-2.053c0.783-0.52,1.695-0.779,2.735-0.779c0.88,0,1.668,0.184,2.364,0.552
		s1.288,0.86,1.776,1.476c0.487,0.616,0.864,1.312,1.128,2.089c0.264,0.775,0.396,1.571,0.396,2.388c0,0.88-0.152,1.712-0.456,2.496
		s-0.72,1.468-1.248,2.052c-0.527,0.584-1.155,1.048-1.884,1.392C44.374,48.568,43.594,48.74,42.762,48.74z M42.378,47.3
		c0.688,0,1.315-0.14,1.884-0.42c0.567-0.279,1.056-0.655,1.464-1.128c0.408-0.472,0.729-1.008,0.96-1.608
		c0.232-0.6,0.349-1.22,0.349-1.859c0-0.656-0.108-1.288-0.324-1.896c-0.216-0.607-0.521-1.147-0.912-1.62
		c-0.393-0.472-0.864-0.848-1.416-1.128c-0.552-0.279-1.156-0.42-1.812-0.42c-0.496,0-0.96,0.084-1.392,0.252
		s-0.832,0.396-1.2,0.685s-0.695,0.62-0.983,0.996s-0.528,0.771-0.721,1.188v3.888c0.064,0.433,0.236,0.837,0.517,1.213
		c0.279,0.376,0.615,0.699,1.008,0.972c0.392,0.272,0.816,0.488,1.271,0.647C41.525,47.22,41.962,47.3,42.378,47.3z"/>
</g>
<path fill="none" stroke="#EAE1DA" stroke-miterlimit="10" d="M91.091,60.5H8.909c-4.644,0-8.409-3.765-8.409-8.409V8.909
	C0.5,4.265,4.265,0.5,8.909,0.5h82.182c4.644,0,8.409,3.765,8.409,8.409v43.182C99.5,56.735,95.735,60.5,91.091,60.5z"/>
</svg>
