<?xml version="1.0" encoding="utf-8"?>
<!-- Generator: Adobe Illustrator 22.1.0, SVG Export Plug-In . SVG Version: 6.00 Build 0)  -->
<svg version="1.1" id="Layer_1" xmlns="http://www.w3.org/2000/svg" xmlns:xlink="http://www.w3.org/1999/xlink" x="0px" y="0px"
	 viewBox="0 0 125 60" enable-background="new 0 0 125 60" xml:space="preserve">
<g>
	<g>
		<g>
			<path fill="#EBE2DB" d="M86.012,19.318c-0.528,0-1.011-0.098-1.451-0.296c-0.44-0.197-0.823-0.468-1.146-0.813
				c-0.325-0.344-0.576-0.741-0.757-1.191c-0.181-0.45-0.271-0.932-0.271-1.446c0-0.505,0.09-0.98,0.271-1.425
				c0.18-0.445,0.43-0.835,0.75-1.17c0.32-0.335,0.701-0.601,1.146-0.799c0.444-0.197,0.925-0.296,1.444-0.296
				c0.528,0,1.012,0.099,1.452,0.296c0.439,0.198,0.817,0.466,1.132,0.806c0.315,0.339,0.56,0.73,0.736,1.17
				c0.175,0.441,0.264,0.91,0.264,1.405c0,0.073,0,0.147,0,0.22c0,0.074-0.005,0.124-0.014,0.152h-6.195
				c0.028,0.385,0.118,0.742,0.271,1.067c0.152,0.326,0.349,0.608,0.59,0.846c0.24,0.239,0.515,0.426,0.826,0.558
				c0.31,0.134,0.64,0.2,0.993,0.2c0.232,0,0.463-0.032,0.695-0.096c0.231-0.064,0.444-0.152,0.638-0.262
				c0.195-0.11,0.37-0.245,0.528-0.406c0.157-0.16,0.278-0.337,0.361-0.53l0.819,0.221c-0.11,0.266-0.268,0.507-0.472,0.722
				c-0.203,0.216-0.44,0.404-0.708,0.565c-0.268,0.16-0.565,0.284-0.889,0.372C86.702,19.274,86.364,19.318,86.012,19.318z
				 M88.678,15.214c-0.027-0.385-0.118-0.737-0.27-1.053c-0.153-0.317-0.348-0.59-0.583-0.819c-0.236-0.23-0.51-0.409-0.82-0.538
				c-0.31-0.128-0.641-0.192-0.993-0.192c-0.353,0-0.686,0.064-1,0.192c-0.315,0.129-0.591,0.308-0.826,0.538
				c-0.236,0.23-0.426,0.504-0.57,0.826c-0.143,0.321-0.23,0.67-0.257,1.046H88.678z"/>
		</g>
		<g>
			<path fill="#EBE2DB" d="M97.122,19.18h-0.944v-4.007c0-0.854-0.128-1.473-0.383-1.859c-0.255-0.386-0.645-0.578-1.173-0.578
				c-0.278,0-0.556,0.05-0.833,0.151c-0.278,0.102-0.535,0.244-0.771,0.427s-0.447,0.402-0.632,0.654
				c-0.186,0.253-0.32,0.525-0.403,0.819v4.393h-0.945v-7.174h0.861v1.625c0.296-0.524,0.72-0.946,1.271-1.267
				c0.55-0.322,1.15-0.482,1.798-0.482c0.398,0,0.736,0.074,1.014,0.22c0.278,0.147,0.5,0.353,0.667,0.62
				c0.167,0.267,0.287,0.593,0.361,0.978c0.074,0.386,0.11,0.813,0.11,1.281V19.18z"/>
		</g>
		<g>
			<path fill="#EBE2DB" d="M102.539,18.836c-0.055,0.027-0.137,0.064-0.243,0.11c-0.107,0.046-0.229,0.092-0.368,0.138
				c-0.139,0.046-0.296,0.087-0.472,0.124c-0.176,0.037-0.361,0.055-0.555,0.055c-0.204,0-0.398-0.028-0.584-0.083
				c-0.185-0.055-0.347-0.14-0.485-0.255c-0.14-0.115-0.25-0.259-0.333-0.434c-0.083-0.174-0.125-0.377-0.125-0.606v-5.136h-1.001
				v-0.743h1.001V9.582h0.944v2.423h1.667v0.743h-1.667v4.875c0.018,0.266,0.113,0.461,0.285,0.585
				c0.171,0.124,0.368,0.186,0.591,0.186c0.268,0,0.504-0.043,0.708-0.131c0.203-0.087,0.333-0.15,0.388-0.186L102.539,18.836z"/>
		</g>
		<g>
			<path fill="#EBE2DB" d="M106.665,19.318c-0.528,0-1.011-0.098-1.451-0.296c-0.44-0.197-0.823-0.468-1.146-0.813
				c-0.325-0.344-0.576-0.741-0.757-1.191c-0.181-0.45-0.271-0.932-0.271-1.446c0-0.505,0.09-0.98,0.271-1.425
				c0.18-0.445,0.43-0.835,0.75-1.17c0.32-0.335,0.701-0.601,1.146-0.799c0.444-0.197,0.925-0.296,1.444-0.296
				c0.528,0,1.012,0.099,1.452,0.296c0.439,0.198,0.817,0.466,1.132,0.806c0.315,0.339,0.56,0.73,0.736,1.17
				c0.175,0.441,0.264,0.91,0.264,1.405c0,0.073,0,0.147,0,0.22c0,0.074-0.005,0.124-0.014,0.152h-6.195
				c0.028,0.385,0.118,0.742,0.271,1.067c0.152,0.326,0.349,0.608,0.59,0.846c0.24,0.239,0.515,0.426,0.826,0.558
				c0.31,0.134,0.64,0.2,0.993,0.2c0.232,0,0.463-0.032,0.695-0.096c0.231-0.064,0.444-0.152,0.638-0.262
				c0.195-0.11,0.37-0.245,0.528-0.406c0.157-0.16,0.278-0.337,0.361-0.53l0.819,0.221c-0.11,0.266-0.268,0.507-0.472,0.722
				c-0.203,0.216-0.44,0.404-0.708,0.565c-0.268,0.16-0.565,0.284-0.889,0.372C107.355,19.274,107.017,19.318,106.665,19.318z
				 M109.331,15.214c-0.027-0.385-0.118-0.737-0.27-1.053c-0.153-0.317-0.348-0.59-0.583-0.819c-0.236-0.23-0.51-0.409-0.82-0.538
				c-0.31-0.128-0.641-0.192-0.993-0.192c-0.353,0-0.686,0.064-1,0.192c-0.315,0.129-0.591,0.308-0.826,0.538
				c-0.236,0.23-0.426,0.504-0.57,0.826c-0.143,0.321-0.23,0.67-0.257,1.046H109.331z"/>
		</g>
		<g>
			<path fill="#EBE2DB" d="M115.304,12.832c-0.639,0.018-1.195,0.193-1.667,0.524c-0.472,0.33-0.805,0.785-1,1.363v4.462h-0.945
				v-7.174h0.889v1.721c0.268-0.55,0.63-0.983,1.083-1.295c0.453-0.311,0.94-0.468,1.458-0.468c0.075,0,0.135,0.005,0.181,0.013
				V12.832z"/>
		</g>
	</g>
	<g>
		<g>
			<path fill="#EBE2DB" d="M57.303,36.822c-1.096,0.032-2.048,0.331-2.857,0.897c-0.81,0.567-1.382,1.346-1.715,2.337v7.649h-1.619
				V35.406h1.524v2.951c0.46-0.944,1.079-1.684,1.857-2.219c0.778-0.535,1.611-0.803,2.5-0.803c0.127,0,0.231,0.009,0.31,0.024
				V36.822z"/>
		</g>
		<g>
			<path fill="#EBE2DB" d="M64.209,47.941c-0.905,0-1.734-0.169-2.488-0.508c-0.755-0.338-1.41-0.802-1.965-1.393
				c-0.556-0.59-0.988-1.27-1.297-2.041c-0.31-0.771-0.465-1.597-0.465-2.479c0-0.865,0.155-1.68,0.465-2.444
				c0.309-0.763,0.738-1.431,1.286-2.006s1.202-1.031,1.964-1.37c0.762-0.338,1.587-0.507,2.476-0.507
				c0.905,0,1.734,0.169,2.488,0.507c0.754,0.339,1.401,0.799,1.941,1.381c0.54,0.582,0.96,1.251,1.262,2.007
				c0.301,0.755,0.452,1.558,0.452,2.408c0,0.126,0,0.252,0,0.377s-0.009,0.212-0.024,0.259H59.685
				c0.048,0.661,0.202,1.271,0.465,1.83c0.262,0.558,0.599,1.042,1.011,1.451c0.413,0.409,0.885,0.728,1.416,0.956
				c0.532,0.229,1.1,0.343,1.703,0.343c0.396,0,0.793-0.055,1.19-0.165c0.397-0.11,0.762-0.26,1.096-0.449
				c0.333-0.189,0.635-0.421,0.905-0.696c0.269-0.276,0.476-0.578,0.619-0.909l1.405,0.377c-0.191,0.456-0.461,0.869-0.81,1.239
				c-0.349,0.37-0.754,0.693-1.214,0.968c-0.461,0.276-0.969,0.488-1.524,0.637C65.391,47.866,64.812,47.941,64.209,47.941z
				 M68.78,40.906c-0.047-0.661-0.202-1.263-0.464-1.806c-0.262-0.543-0.595-1.011-1-1.404s-0.873-0.7-1.405-0.921
				c-0.532-0.22-1.1-0.33-1.702-0.33c-0.604,0-1.175,0.11-1.715,0.33c-0.54,0.221-1.011,0.527-1.416,0.921
				c-0.405,0.394-0.73,0.865-0.977,1.416c-0.246,0.551-0.392,1.149-0.44,1.794H68.78z"/>
		</g>
		<g>
			<path fill="#EBE2DB" d="M78.684,47.115c-0.095,0.047-0.234,0.11-0.417,0.188s-0.392,0.158-0.631,0.236s-0.509,0.15-0.81,0.212
				c-0.301,0.062-0.619,0.094-0.952,0.094c-0.349,0-0.682-0.047-1-0.141s-0.595-0.24-0.833-0.437
				c-0.238-0.196-0.428-0.444-0.572-0.743c-0.142-0.299-0.214-0.645-0.214-1.038v-8.805h-1.715v-1.275h1.715v-4.154h1.619v4.154
				h2.857v1.275h-2.857v8.357c0.032,0.456,0.194,0.791,0.488,1.003c0.294,0.213,0.631,0.319,1.011,0.319
				c0.46,0,0.865-0.074,1.215-0.224c0.349-0.15,0.572-0.256,0.667-0.319L78.684,47.115z"/>
		</g>
		<g>
			<path fill="#EBE2DB" d="M84.589,47.941c-1.35,0-2.353-0.445-3.012-1.334c-0.659-0.889-0.988-2.215-0.988-3.978v-7.223h1.619v6.94
				c0,2.786,0.961,4.178,2.881,4.178c0.477,0,0.945-0.079,1.405-0.236c0.46-0.157,0.885-0.385,1.274-0.684
				c0.388-0.299,0.738-0.653,1.047-1.062c0.31-0.409,0.56-0.873,0.75-1.393v-7.743h1.62v10.221c0,0.441,0.19,0.661,0.571,0.661
				v1.417c-0.19,0.032-0.345,0.047-0.464,0.047s-0.202,0-0.25,0c-0.381-0.015-0.691-0.149-0.928-0.402
				c-0.238-0.252-0.357-0.59-0.357-1.014v-1.417c-0.54,0.961-1.274,1.704-2.202,2.23C86.624,47.678,85.636,47.941,84.589,47.941z"/>
		</g>
		<g>
			<path fill="#EBE2DB" d="M101.041,36.822c-1.096,0.032-2.048,0.331-2.857,0.897c-0.81,0.567-1.382,1.346-1.715,2.337v7.649h-1.619
				V35.406h1.524v2.951c0.46-0.944,1.079-1.684,1.857-2.219c0.778-0.535,1.611-0.803,2.5-0.803c0.127,0,0.231,0.009,0.31,0.024
				V36.822z"/>
		</g>
		<g>
			<path fill="#EBE2DB" d="M113.636,47.705h-1.619v-6.87c0-1.463-0.218-2.525-0.655-3.186c-0.436-0.662-1.106-0.992-2.011-0.992
				c-0.477,0-0.952,0.087-1.429,0.26c-0.476,0.173-0.916,0.417-1.321,0.732c-0.405,0.315-0.765,0.689-1.083,1.121
				c-0.318,0.433-0.547,0.901-0.691,1.404v7.531h-1.619V35.406h1.476v2.786c0.508-0.897,1.234-1.62,2.179-2.172
				c0.944-0.55,1.972-0.826,3.083-0.826c0.682,0,1.262,0.126,1.738,0.377c0.477,0.252,0.857,0.606,1.143,1.062
				c0.286,0.456,0.492,1.015,0.619,1.676c0.127,0.661,0.19,1.393,0.19,2.195V47.705z"/>
		</g>
	</g>
	<g>
		<path fill="#EBE2DB" d="M116.162,60H8.838C3.965,60,0,56.068,0,51.237V8.763C0,3.931,3.965,0,8.838,0h107.323
			C121.035,0,125,3.931,125,8.763v42.474C125,56.068,121.035,60,116.162,60z M8.838,0.984c-4.327,0-7.846,3.49-7.846,7.78v42.474
			c0,4.29,3.52,7.78,7.846,7.78h107.323c4.327,0,7.846-3.49,7.846-7.78V8.763c0-4.29-3.52-7.78-7.846-7.78H8.838z"/>
	</g>
</g>
</svg>
